<svg width="10" height="14" viewBox="0 0 10 14" fill="none" xmlns="http://www.w3.org/2000/svg">
    <path d="M8 4C7.60444 4 7.21776 3.8827 6.88886 3.66294C6.55996 3.44318 6.30362 3.13082 6.15224 2.76537C6.00087 2.39992 5.96126 1.99778 6.03843 1.60982C6.1156 1.22186 6.30608 0.865492 6.58579 0.585787C6.86549 0.306082 7.22186 0.115601 7.60982 0.0384303C7.99778 -0.0387401 8.39991 0.000866562 8.76537 0.152242C9.13082 0.303617 9.44318 0.559962 9.66294 0.88886C9.8827 1.21776 10 1.60444 10 2C9.99934 2.53023 9.78841 3.03855 9.41348 3.41348C9.03855 3.78841 8.53023 3.99934 8 4ZM8 1C7.80222 1 7.60888 1.05865 7.44443 1.16853C7.27998 1.27841 7.15181 1.43459 7.07612 1.61732C7.00043 1.80004 6.98063 2.00111 7.01921 2.19509C7.0578 2.38907 7.15304 2.56726 7.29289 2.70711C7.43275 2.84696 7.61093 2.9422 7.80491 2.98079C7.99889 3.01937 8.19996 2.99957 8.38268 2.92388C8.56541 2.84819 8.72159 2.72002 8.83147 2.55557C8.94135 2.39112 9 2.19778 9 2C8.99973 1.73487 8.89429 1.48067 8.70681 1.29319C8.51934 1.10571 8.26514 1.00027 8 1ZM3.25 14C2.52222 14.0005 1.82395 13.7123 1.3084 13.1987C0.792849 12.685 0.502119 11.9878 0.5 11.26C0.5 9.5385 2.672 0.753001 2.765 0.380001C2.7921 0.271887 2.85454 0.175927 2.94241 0.10736C3.03028 0.0387939 3.13854 0.0015533 3.25 0.0015533C3.36146 0.0015533 3.46972 0.0387939 3.55759 0.10736C3.64546 0.175927 3.7079 0.271887 3.735 0.380001C3.828 0.753001 6 9.5385 6 11.26C5.99788 11.9878 5.70715 12.685 5.1916 13.1987C4.67605 13.7123 3.97778 14.0005 3.25 14Z" fill="white" />
</svg>
    