<svg width="12" height="14" viewBox="0 0 12 14" fill="none" xmlns="http://www.w3.org/2000/svg">
    <path d="M5.99996 13.3333C4.52218 13.3333 3.26396 12.8222 2.22529 11.8C1.18618 10.7778 0.666626 9.53889 0.666626 8.08333C0.666626 7.35 0.805515 6.66933 1.08329 6.04133C1.36107 5.41378 1.7444 4.85556 2.23329 4.36667L5.99996 0.666668L9.76663 4.36667C10.2555 4.85556 10.6388 5.41378 10.9166 6.04133C11.1944 6.66933 11.3333 7.35 11.3333 8.08333C11.3333 9.53889 10.814 10.7778 9.77529 11.8C8.73618 12.8222 7.47774 13.3333 5.99996 13.3333V13.3333ZM5.99996 2.53333L3.16663 5.33333C2.83329 5.65556 2.56929 6.014 2.37463 6.40867C2.1804 6.80289 2.06107 7.23333 2.01663 7.7H9.98329C9.93885 7.23333 9.81951 6.80289 9.62529 6.40867C9.43063 6.014 9.16663 5.65556 8.83329 5.33333L5.99996 2.53333Z" fill="white"/>
    </svg>
    