<svg width="16" height="11" viewBox="0 0 16 11" fill="none" xmlns="http://www.w3.org/2000/svg">
    <path d="M7.99999 8.66667C8.83333 8.66667 9.54177 8.37511 10.1253 7.792C10.7084 7.20844 11 6.5 11 5.66667C11 4.83333 10.7084 4.12489 10.1253 3.54133C9.54177 2.95822 8.83333 2.66667 7.99999 2.66667C7.16666 2.66667 6.45821 2.95822 5.87466 3.54133C5.29155 4.12489 4.99999 4.83333 4.99999 5.66667C4.99999 6.5 5.29155 7.20844 5.87466 7.792C6.45821 8.37511 7.16666 8.66667 7.99999 8.66667ZM7.99999 7.46667C7.49999 7.46667 7.0751 7.29155 6.72533 6.94133C6.3751 6.59156 6.19999 6.16667 6.19999 5.66667C6.19999 5.16667 6.3751 4.74156 6.72533 4.39133C7.0751 4.04155 7.49999 3.86667 7.99999 3.86667C8.49999 3.86667 8.9251 4.04155 9.27533 4.39133C9.6251 4.74156 9.79999 5.16667 9.79999 5.66667C9.79999 6.16667 9.6251 6.59156 9.27533 6.94133C8.9251 7.29155 8.49999 7.46667 7.99999 7.46667ZM7.99999 10.6667C6.45555 10.6667 5.04444 10.2584 3.76666 9.442C2.48888 8.62511 1.52221 7.52222 0.866659 6.13333C0.833325 6.07778 0.811103 6.00822 0.799992 5.92467C0.788881 5.84156 0.783325 5.75556 0.783325 5.66667C0.783325 5.57778 0.788881 5.49156 0.799992 5.408C0.811103 5.32489 0.833325 5.25556 0.866659 5.2C1.52221 3.81111 2.48888 2.70844 3.76666 1.892C5.04444 1.07511 6.45555 0.666666 7.99999 0.666666C9.54444 0.666666 10.9555 1.07511 12.2333 1.892C13.5111 2.70844 14.4778 3.81111 15.1333 5.2C15.1667 5.25556 15.1889 5.32489 15.2 5.408C15.2111 5.49156 15.2167 5.57778 15.2167 5.66667C15.2167 5.75556 15.2111 5.84156 15.2 5.92467C15.1889 6.00822 15.1667 6.07778 15.1333 6.13333C14.4778 7.52222 13.5111 8.62511 12.2333 9.442C10.9555 10.2584 9.54444 10.6667 7.99999 10.6667ZM7.99999 9.33333C9.25555 9.33333 10.4084 9.00267 11.4587 8.34133C12.5084 7.68044 13.3111 6.78889 13.8667 5.66667C13.3111 4.54444 12.5084 3.65267 11.4587 2.99133C10.4084 2.33044 9.25555 2 7.99999 2C6.74444 2 5.59155 2.33044 4.54133 2.99133C3.49155 3.65267 2.68888 4.54444 2.13333 5.66667C2.68888 6.78889 3.49155 7.68044 4.54133 8.34133C5.59155 9.00267 6.74444 9.33333 7.99999 9.33333Z" fill="white" />
</svg>
