<svg width="14" height="12" viewBox="0 0 14 12" fill="none" xmlns="http://www.w3.org/2000/svg">
<path d="M1.33329 4C1.46515 4 1.59404 3.9609 1.70367 3.88765C1.81331 3.81439 1.89875 3.71027 1.94921 3.58846C1.99967 3.46664 2.01287 3.33259 1.98715 3.20327C1.96143 3.07395 1.89793 2.95516 1.8047 2.86193C1.71146 2.76869 1.59267 2.7052 1.46335 2.67948C1.33403 2.65375 1.19999 2.66696 1.07817 2.71741C0.956353 2.76787 0.852234 2.85332 0.77898 2.96295C0.705725 3.07259 0.666626 3.20148 0.666626 3.33333C0.666626 3.51014 0.736864 3.67971 0.861888 3.80474C0.986912 3.92976 1.15648 4 1.33329 4ZM3.99996 4H8.66663C9.19706 4 9.70577 3.78929 10.0808 3.41421C10.4559 3.03914 10.6666 2.53043 10.6666 2C10.6666 1.46957 10.4559 0.960859 10.0808 0.585787C9.70577 0.210714 9.19706 0 8.66663 0C8.31591 0.00145097 7.97149 0.0932956 7.66663 0.266667C7.59023 0.31022 7.52321 0.368456 7.46942 0.438021C7.41564 0.507585 7.37614 0.587104 7.35321 0.671998C7.33028 0.756891 7.32438 0.845482 7.33583 0.932667C7.34729 1.01985 7.37588 1.10391 7.41996 1.18C7.46407 1.25584 7.52271 1.32222 7.59253 1.37535C7.66234 1.42847 7.74196 1.4673 7.82681 1.48959C7.91166 1.51189 8.00007 1.51722 8.08699 1.50528C8.1739 1.49333 8.2576 1.46436 8.33329 1.42C8.43585 1.36482 8.55018 1.33509 8.66663 1.33333C8.84344 1.33333 9.01301 1.40357 9.13803 1.5286C9.26305 1.65362 9.33329 1.82319 9.33329 2C9.33329 2.17681 9.26305 2.34638 9.13803 2.4714C9.01301 2.59643 8.84344 2.66667 8.66663 2.66667H3.99996C3.82315 2.66667 3.65358 2.7369 3.52856 2.86193C3.40353 2.98695 3.33329 3.15652 3.33329 3.33333C3.33329 3.51014 3.40353 3.67971 3.52856 3.80474C3.65358 3.92976 3.82315 4 3.99996 4ZM1.33329 6.66667H5.99996C6.17677 6.66667 6.34634 6.59643 6.47136 6.4714C6.59639 6.34638 6.66663 6.17681 6.66663 6C6.66663 5.82319 6.59639 5.65362 6.47136 5.5286C6.34634 5.40357 6.17677 5.33333 5.99996 5.33333H1.33329C1.15648 5.33333 0.986912 5.40357 0.861888 5.5286C0.736864 5.65362 0.666626 5.82319 0.666626 6C0.666626 6.17681 0.736864 6.34638 0.861888 6.4714C0.986912 6.59643 1.15648 6.66667 1.33329 6.66667V6.66667ZM12.6666 4C12.7985 4 12.9274 3.9609 13.037 3.88765C13.1466 3.81439 13.2321 3.71027 13.2825 3.58846C13.333 3.46664 13.3462 3.33259 13.3205 3.20327C13.2948 3.07395 13.2313 2.95516 13.138 2.86193C13.0448 2.76869 12.926 2.7052 12.7967 2.67948C12.6674 2.65375 12.5333 2.66696 12.4115 2.71741C12.2897 2.76787 12.1856 2.85332 12.1123 2.96295C12.0391 3.07259 12 3.20148 12 3.33333C12 3.51014 12.0702 3.67971 12.1952 3.80474C12.3202 3.92976 12.4898 4 12.6666 4ZM11.3333 5.33333H8.66663C8.48982 5.33333 8.32025 5.40357 8.19522 5.5286C8.0702 5.65362 7.99996 5.82319 7.99996 6C7.99996 6.17681 8.0702 6.34638 8.19522 6.4714C8.32025 6.59643 8.48982 6.66667 8.66663 6.66667H11.3333C11.5101 6.66667 11.6797 6.7369 11.8047 6.86193C11.9297 6.98695 12 7.15652 12 7.33333C12 7.51014 11.9297 7.67971 11.8047 7.80474C11.6797 7.92976 11.5101 8 11.3333 8C11.1565 8 10.9869 8.07024 10.8619 8.19526C10.7369 8.32029 10.6666 8.48986 10.6666 8.66667C10.6666 8.84348 10.7369 9.01305 10.8619 9.13807C10.9869 9.2631 11.1565 9.33333 11.3333 9.33333C11.8637 9.33333 12.3724 9.12262 12.7475 8.74755C13.1226 8.37247 13.3333 7.86377 13.3333 7.33333C13.3333 6.8029 13.1226 6.29419 12.7475 5.91912C12.3724 5.54405 11.8637 5.33333 11.3333 5.33333V5.33333ZM7.33329 8H4.66663C4.48982 8 4.32025 8.07024 4.19522 8.19526C4.0702 8.32029 3.99996 8.48986 3.99996 8.66667C3.99996 8.84348 4.0702 9.01305 4.19522 9.13807C4.32025 9.2631 4.48982 9.33333 4.66663 9.33333H7.33329C7.5101 9.33333 7.67967 9.40357 7.8047 9.5286C7.92972 9.65362 7.99996 9.82319 7.99996 10C7.99996 10.1768 7.92972 10.3464 7.8047 10.4714C7.67967 10.5964 7.5101 10.6667 7.33329 10.6667C7.21684 10.6649 7.10252 10.6352 6.99996 10.58C6.92408 10.5318 6.83923 10.4994 6.75051 10.4848C6.66179 10.4702 6.57103 10.4737 6.4837 10.4951C6.39637 10.5165 6.31427 10.5553 6.24234 10.6093C6.1704 10.6632 6.11013 10.7311 6.06513 10.809C6.02013 10.8868 5.99135 10.973 5.98051 11.0622C5.96967 11.1515 5.97699 11.242 6.00204 11.3284C6.02709 11.4147 6.06935 11.4951 6.12628 11.5647C6.18321 11.6343 6.25362 11.6917 6.33329 11.7333C6.63816 11.9067 6.98258 11.9985 7.33329 12C7.86373 12 8.37243 11.7893 8.74751 11.4142C9.12258 11.0391 9.33329 10.5304 9.33329 10C9.33329 9.46957 9.12258 8.96086 8.74751 8.58579C8.37243 8.21071 7.86373 8 7.33329 8V8ZM1.99996 8H1.33329C1.15648 8 0.986912 8.07024 0.861888 8.19526C0.736864 8.32029 0.666626 8.48986 0.666626 8.66667C0.666626 8.84348 0.736864 9.01305 0.861888 9.13807C0.986912 9.2631 1.15648 9.33333 1.33329 9.33333H1.99996C2.17677 9.33333 2.34634 9.2631 2.47136 9.13807C2.59639 9.01305 2.66663 8.84348 2.66663 8.66667C2.66663 8.48986 2.59639 8.32029 2.47136 8.19526C2.34634 8.07024 2.17677 8 1.99996 8Z" fill="white"/>
</svg>
